<svg version="1.1" id="Layer_1" xmlns="http://www.w3.org/2000/svg" xmlns:xlink="http://www.w3.org/1999/xlink" x="0px" y="0px"
	 width="100%" viewBox="0 0 1908 705" enable-background="new 0 0 1908 705" xml:space="preserve">
<path fill="#FFFFFF" opacity="1.000000" stroke="none" 
	d="
M335.000000,1.000000 
	C859.625671,1.000000 1384.251343,1.000000 1908.938477,1.000000 
	C1908.938477,235.940659 1908.938477,470.881348 1908.938477,705.911011 
	C1273.109009,705.911011 637.217957,705.911011 1.163465,705.911011 
	C1.163465,471.000061 1.163465,236.000061 1.163465,1.000000 
	C106.109573,1.000000 211.101151,1.000000 316.389954,1.354481 
	C294.349854,5.457099 278.376251,26.684509 280.820312,50.778316 
	C282.205322,64.431709 287.128113,76.291313 294.733582,87.349907 
	C298.221222,92.421074 301.731628,97.476646 305.231689,102.539291 
	C301.167908,101.083389 297.845917,98.806618 294.330933,96.882416 
	C278.160858,88.030434 261.480988,81.518250 242.409103,84.943932 
	C232.711182,86.685860 224.166824,90.826759 217.773117,98.003311 
	C209.349823,107.457970 205.324051,118.810722 205.908569,131.834198 
	C206.662430,148.630219 214.659866,160.831238 228.856369,168.868423 
	C244.193924,177.551605 260.971008,178.386963 278.078339,176.076843 
	C283.190308,175.386536 288.320679,174.832520 294.598267,174.076981 
	C291.896393,175.440964 290.187073,176.298859 288.482147,177.165375 
	C275.748962,183.636978 264.035522,191.265274 254.231277,202.032181 
	C240.516968,217.093094 235.578934,241.505341 247.530960,260.060089 
	C255.361526,272.216553 266.694153,279.197815 280.783234,280.858582 
	C296.446686,282.704895 310.050171,276.972015 320.582611,265.600372 
	C327.159454,258.499542 332.138275,249.918610 337.911194,242.465836 
	C337.988159,310.532440 337.988159,378.135071 337.988159,446.569519 
	C335.209534,444.942017 333.093140,443.586395 330.876404,442.421753 
	C306.180664,429.446808 279.518127,424.303589 251.973373,423.102234 
	C244.252335,422.765503 236.450073,423.367218 228.733337,424.069153 
	C216.723785,425.161560 204.580048,425.847687 192.807800,428.248596 
	C171.087219,432.678467 150.009735,439.525665 129.776489,448.706299 
	C104.933266,459.978699 81.736610,474.057068 61.437389,492.285980 
	C40.421528,511.158417 22.511814,532.582947 11.923263,559.348145 
	C4.244171,578.758972 0.908975,598.426758 4.858160,619.313843 
	C9.110016,641.801697 20.832298,659.666504 38.247971,673.455994 
	C63.492260,693.444336 93.486671,701.825623 125.046974,703.707947 
	C141.610931,704.695740 158.384689,703.084106 175.009262,701.889221 
	C192.944427,700.600037 210.233459,695.761658 227.281342,690.253662 
	C245.794968,684.272095 263.536530,676.466064 280.504944,666.909363 
	C300.270538,655.777344 318.326752,642.287598 334.656952,626.626770 
	C341.599182,619.969055 347.671417,612.331543 353.636597,604.744263 
	C363.127472,592.672607 370.806763,579.526978 376.074127,564.987000 
	C381.835480,549.083496 383.485474,532.946411 383.305389,515.932312 
	C382.571899,446.624207 382.998871,377.303864 383.006897,307.988007 
	C383.007111,306.326019 383.110474,304.664001 383.593109,303.001099 
	C390.533722,303.005829 397.189178,303.891418 403.535583,302.865356 
	C431.615509,298.325409 444.978302,272.264587 439.470306,246.900665 
	C436.396210,232.744568 429.606689,220.470459 420.729187,209.220718 
	C418.494354,206.388702 416.219177,203.588562 413.962524,200.773773 
	C415.618042,200.906433 416.689392,201.559174 417.747223,202.233139 
	C435.457397,213.516541 453.790436,222.601715 475.805511,220.056122 
	C484.876892,219.007187 492.821228,215.663498 499.670624,209.783188 
	C511.236816,199.853424 515.619385,187.040009 515.089722,171.995697 
	C514.686218,160.534500 510.230011,150.801559 502.366333,143.159683 
	C491.914764,133.002869 478.596466,128.307129 464.088898,128.114273 
	C452.595673,127.961494 441.088898,128.829666 429.908600,129.232925 
	C430.787872,128.725281 432.115753,127.867996 433.519836,127.162209 
	C445.323761,121.228668 456.165436,114.015129 465.264374,104.282433 
	C477.936127,90.728088 483.791382,74.930992 478.831482,56.802670 
	C472.117065,32.261696 449.605774,20.062151 425.959381,24.651525 
	C408.878021,27.966724 397.393219,39.525723 388.839447,53.815750 
	C383.468994,62.787666 379.504364,72.601112 375.750214,80.309731 
	C374.930145,69.623657 374.507111,56.972290 372.840729,44.486858 
	C371.300018,32.942848 366.091339,22.869535 357.904297,14.242662 
	C351.474426,7.467345 343.416260,4.054219 335.000000,1.000000 
M1298.000000,265.500000 
	C1298.000000,250.167282 1298.006226,234.834579 1297.996948,219.501862 
	C1297.993042,212.933228 1293.833252,207.060806 1287.720337,205.012436 
	C1276.644165,201.300995 1265.324707,203.637192 1254.000000,203.000504 
	C1254.000000,288.354065 1253.989380,373.011749 1254.021118,457.669434 
	C1254.023560,464.069611 1258.431396,470.890564 1264.588379,471.811371 
	C1275.517212,473.445862 1286.618652,473.927917 1298.000000,474.922913 
	C1298.000000,471.823212 1298.000000,470.183044 1298.000000,468.542877 
	C1298.000000,430.211121 1297.810791,391.877777 1298.136963,353.548798 
	C1298.215698,344.303558 1299.300415,334.926727 1301.189209,325.874756 
	C1303.251465,315.991577 1307.872070,307.302429 1316.403320,300.833862 
	C1327.349976,292.533936 1339.830444,292.156036 1352.387207,293.178284 
	C1363.911865,294.116486 1373.692871,299.295776 1378.671631,310.423401 
	C1383.292480,320.751068 1384.770996,332.007446 1384.870728,343.156036 
	C1385.209473,380.984772 1385.002686,418.818390 1384.997559,456.650146 
	C1384.996704,463.305969 1387.867798,468.070953 1393.939453,471.023468 
	C1405.262817,476.529816 1417.159668,472.885437 1429.000000,474.120361 
	C1429.000000,472.268677 1429.000000,471.122406 1429.000000,469.976166 
	C1429.000000,429.477844 1428.864136,388.978790 1429.082642,348.481659 
	C1429.148438,336.285004 1428.179565,324.276306 1424.937378,312.562653 
	C1419.516724,292.979553 1408.495728,278.525452 1388.379883,271.587433 
	C1372.680542,266.172699 1356.648804,266.512573 1340.653076,267.255219 
	C1331.435669,267.683136 1322.140259,270.491638 1314.584595,276.266113 
	C1308.502930,280.913879 1303.232666,286.623138 1298.000000,291.491547 
	C1298.000000,283.793335 1298.000000,275.146667 1298.000000,265.500000 
M1698.956909,404.659241 
	C1701.077759,417.386566 1706.208496,428.940033 1713.271118,439.584076 
	C1722.007690,452.750854 1733.476196,463.161377 1747.796021,469.870544 
	C1762.638062,476.824432 1778.461060,479.521149 1794.853149,477.964783 
	C1803.268311,477.165802 1811.785278,476.636414 1820.017334,474.871216 
	C1838.796509,470.844421 1854.299561,460.795441 1866.300049,446.022308 
	C1881.994385,426.701477 1887.360596,403.449585 1888.873413,379.275940 
	C1889.909180,362.724365 1888.651245,346.217682 1884.011108,330.124542 
	C1877.281860,306.786530 1864.596802,288.151459 1842.442871,276.838165 
	C1826.202393,268.544739 1808.927612,266.330872 1790.896484,266.840637 
	C1780.044312,267.147491 1769.438232,268.206451 1758.980835,270.999481 
	C1743.028687,275.260071 1729.238159,283.319977 1718.687622,295.974762 
	C1703.774902,313.861725 1697.647461,335.454315 1696.258301,358.120239 
	C1695.325439,373.342499 1694.546143,388.837982 1698.956909,404.659241 
M1056.000000,332.689453 
	C1055.667358,330.444366 1055.336182,328.199066 1055.001709,325.954224 
	C1052.534180,309.388611 1046.647217,294.696198 1033.241699,283.631805 
	C1022.145142,274.473328 1009.172852,269.875122 995.344604,268.209167 
	C984.054688,266.848999 972.497009,266.557709 961.142151,267.224121 
	C950.370728,267.856262 939.474243,269.468475 929.056763,272.242065 
	C915.685669,275.801971 904.342468,283.075165 895.755737,294.515442 
	C885.579712,308.073090 881.615845,323.814545 881.272705,339.932953 
	C880.436096,379.238495 880.966797,418.573853 881.031311,457.897064 
	C881.042603,464.790955 885.895264,472.157837 892.005554,472.796722 
	C902.902466,473.936066 913.917603,473.944641 924.999878,474.431213 
	C924.999878,472.471985 924.994385,471.643829 925.000732,470.815735 
	C925.333191,427.574341 925.526672,384.331024 926.127441,341.093353 
	C926.237244,333.189301 927.086426,325.048248 929.227051,317.478271 
	C932.361145,306.394623 938.847046,297.968445 951.126648,294.814087 
	C962.764648,291.824585 974.322937,292.512238 985.790344,294.202026 
	C995.645874,295.654297 1003.723816,301.601166 1006.689087,311.107056 
	C1009.690735,320.729523 1011.621948,331.070679 1011.770447,341.130219 
	C1012.338440,379.612030 1011.979004,418.107239 1012.016907,456.597382 
	C1012.024963,464.745117 1016.704956,472.448029 1024.688354,472.961365 
	C1035.004028,473.624634 1045.340820,473.963165 1056.000000,474.456909 
	C1056.000000,426.892151 1056.000000,380.271423 1056.000000,332.689453 
M689.673096,511.000031 
	C685.491821,511.451721 681.310547,511.903442 677.196594,512.347839 
	C676.051575,523.189819 676.906067,529.495728 691.584900,532.022156 
	C700.101074,533.487854 708.949341,534.317627 717.531189,533.728394 
	C725.426392,533.186401 733.557983,531.327637 740.890625,528.342346 
	C756.076965,522.159668 764.742249,508.928009 771.818665,495.131104 
	C781.485352,476.283875 790.495605,457.061279 798.902832,437.617188 
	C807.988281,416.604553 817.309875,395.551758 824.250244,373.789856 
	C833.022095,346.285004 839.619568,318.079193 846.884766,290.105530 
	C849.347900,280.621582 844.937561,272.270844 836.291687,271.353760 
	C826.651672,270.331268 816.819580,271.119354 807.615784,271.119354 
	C802.949768,328.035553 786.124268,381.013184 764.557617,433.430908 
	C763.770996,432.103271 763.267334,431.462067 762.978760,430.735474 
	C756.302063,413.922607 749.182007,397.266693 743.117249,380.235077 
	C736.561523,361.824463 730.612671,343.173126 725.137878,324.411224 
	C721.717896,312.690765 719.259399,300.644257 717.102356,288.612671 
	C714.626099,274.800476 710.559265,272.365082 700.254578,271.260986 
	C689.394592,270.097382 678.313171,271.000244 667.576843,271.000244 
	C667.742188,272.864716 667.650391,274.559967 668.067566,276.119049 
	C673.129761,295.040649 677.318542,314.264648 683.611328,332.771851 
	C692.628418,359.291290 702.440063,385.603363 713.352600,411.394623 
	C721.346558,430.287994 731.681458,448.188934 740.864563,466.586395 
	C741.388733,467.636536 741.346619,469.359558 740.863037,470.459534 
	C737.572876,477.943573 734.317383,485.458160 730.615662,492.741821 
	C726.471741,500.895538 720.557007,507.779846 711.278076,509.689575 
	C704.591248,511.065796 697.531189,510.628387 689.673096,511.000031 
M1603.354004,270.001831 
	C1598.626465,269.002014 1593.921997,267.285095 1589.167236,267.131866 
	C1572.451538,266.593201 1555.768188,266.488190 1539.557861,272.041962 
	C1523.651978,277.491394 1510.259521,286.686157 1500.184082,299.796295 
	C1483.985107,320.874054 1478.985474,345.893036 1478.149048,371.809357 
	C1477.870483,380.441864 1479.170044,389.146729 1480.033936,397.789886 
	C1481.467651,412.134735 1486.389404,425.396271 1494.179199,437.393433 
	C1505.465820,454.775726 1521.433472,466.521545 1541.049561,472.872101 
	C1555.290283,477.482452 1570.056763,478.541687 1585.086792,478.177826 
	C1599.057617,477.839600 1612.677734,476.649719 1625.578125,470.973694 
	C1635.149170,466.762543 1643.018799,460.374695 1645.763672,450.007172 
	C1647.412842,443.777679 1646.948364,436.988617 1647.545166,428.950867 
	C1644.787598,430.325043 1643.048096,430.867523 1641.712769,431.922058 
	C1638.496338,434.462311 1635.764404,437.721710 1632.316406,439.845947 
	C1613.018188,451.735291 1592.093994,454.833130 1569.882446,451.061768 
	C1548.859497,447.492218 1535.371460,435.187622 1528.290771,415.555664 
	C1524.898315,406.149994 1523.012939,396.356262 1523.048462,385.000000 
	C1541.774414,385.000000 1560.002197,384.922943 1578.229126,385.023743 
	C1593.494995,385.108154 1608.638428,383.967072 1623.385498,379.927948 
	C1636.492065,376.338135 1648.479126,370.497589 1653.526489,356.738098 
	C1656.950684,347.403534 1657.528320,337.607422 1656.186157,327.444336 
	C1653.705566,308.659973 1644.592285,293.980042 1629.708740,283.203796 
	C1622.043091,277.653564 1612.751587,274.348969 1603.354004,270.001831 
M624.543945,285.024445 
	C623.691589,283.850342 622.950562,282.572723 621.969604,281.518188 
	C612.225647,271.043396 599.105713,267.963165 585.885742,267.299347 
	C572.294739,266.616882 558.405273,267.181793 544.965210,269.261078 
	C523.369324,272.602173 504.362885,281.548279 492.982819,301.648132 
	C486.852905,312.475037 484.501862,324.165619 486.882965,336.722534 
	C489.260040,349.258301 497.533569,357.054352 507.216675,364.043549 
	C521.886841,374.632385 539.331055,378.268921 555.918884,384.203796 
	C565.324524,387.569000 575.061157,391.644440 582.775513,397.762115 
	C598.974854,410.608643 594.517090,440.520416 570.590271,448.973236 
	C556.533325,453.939270 542.253479,452.841736 528.126465,449.512238 
	C513.734070,446.120209 501.211334,439.423340 492.358948,427.007690 
	C491.843445,426.284729 490.461578,426.179535 489.000854,425.593475 
	C489.000854,432.042603 488.642700,437.882050 489.081573,443.661011 
	C489.809937,453.251984 494.531250,460.439758 502.416901,466.212402 
	C513.064148,474.006714 525.367188,476.996552 537.776489,477.706268 
	C558.506042,478.891846 579.551941,479.479889 599.241394,470.861023 
	C609.068420,466.559357 618.071899,461.011414 624.735657,451.967377 
	C631.586243,442.669830 634.614075,432.524078 636.285828,421.209808 
	C638.301086,407.570801 634.113525,396.556488 625.358276,386.984894 
	C611.561951,371.902191 593.176270,364.844055 574.203308,358.976257 
	C562.883789,355.475403 551.658264,352.087494 541.484558,345.350372 
	C527.219299,335.903809 526.780762,310.734100 542.000305,301.041565 
	C557.602600,291.105316 574.759705,291.679169 592.065125,294.559052 
	C606.392090,296.943298 616.487488,306.096100 625.818054,316.344055 
	C626.516968,317.111694 627.415649,317.697449 629.000000,319.015381 
	C629.000000,311.943420 628.793701,306.113220 629.060120,300.304718 
	C629.308411,294.892059 628.133362,290.018677 624.543945,285.024445 
M1153.000000,336.500000 
	C1153.000000,323.072235 1153.000000,309.644501 1153.000000,296.000000 
	C1170.206177,296.000000 1186.844727,296.050446 1203.482544,295.952118 
	C1206.379272,295.935028 1209.497437,295.856415 1212.118530,294.813751 
	C1217.056763,292.849335 1222.480835,290.686584 1223.858154,284.824951 
	C1224.955688,280.154602 1224.900269,275.213379 1225.399170,269.942566 
	C1200.478149,269.942566 1176.408569,269.942566 1152.000000,269.942566 
	C1152.000000,262.428833 1152.000000,255.302231 1152.000000,248.175629 
	C1152.000000,240.895554 1152.000000,233.615494 1152.000000,226.000000 
	C1148.099731,226.000000 1144.615967,226.249161 1141.178101,225.957397 
	C1125.300049,224.609833 1107.885376,246.003540 1107.929565,259.088928 
	C1108.102051,310.237823 1107.965942,361.387695 1108.044067,412.537048 
	C1108.053589,418.781097 1108.240112,425.081818 1109.075684,431.257385 
	C1112.057983,453.301208 1124.669434,465.632599 1144.959351,471.991913 
	C1159.629272,476.589783 1174.772217,476.440582 1189.862061,475.872955 
	C1196.099854,475.638306 1202.472656,474.628235 1208.447754,472.844360 
	C1216.576904,470.417480 1222.978271,465.566559 1223.994141,456.188446 
	C1224.571533,450.856842 1224.925049,445.500977 1225.428467,439.577881 
	C1222.582031,440.077759 1220.267090,439.818634 1218.882812,440.831573 
	C1206.639526,449.790955 1192.561401,451.085968 1178.319092,449.779449 
	C1169.085693,448.932434 1160.048096,445.790222 1156.860229,435.317413 
	C1155.233276,429.972717 1153.247925,424.441467 1153.171997,418.970245 
	C1152.794922,391.817932 1153.000000,364.657532 1153.000000,336.500000 
z"/>
<path fill="#00CED1" opacity="1.000000" stroke="none" 
	d="
M334.532043,1.000000 
	C343.416260,4.054219 351.474426,7.467345 357.904297,14.242662 
	C366.091339,22.869535 371.300018,32.942848 372.840729,44.486858 
	C374.507111,56.972290 374.930145,69.623657 375.750214,80.309731 
	C379.504364,72.601112 383.468994,62.787666 388.839447,53.815750 
	C397.393219,39.525723 408.878021,27.966724 425.959381,24.651525 
	C449.605774,20.062151 472.117065,32.261696 478.831482,56.802670 
	C483.791382,74.930992 477.936127,90.728088 465.264374,104.282433 
	C456.165436,114.015129 445.323761,121.228668 433.519836,127.162209 
	C432.115753,127.867996 430.787872,128.725281 429.908600,129.232925 
	C441.088898,128.829666 452.595673,127.961494 464.088898,128.114273 
	C478.596466,128.307129 491.914764,133.002869 502.366333,143.159683 
	C510.230011,150.801559 514.686218,160.534500 515.089722,171.995697 
	C515.619385,187.040009 511.236816,199.853424 499.670624,209.783188 
	C492.821228,215.663498 484.876892,219.007187 475.805511,220.056122 
	C453.790436,222.601715 435.457397,213.516541 417.747223,202.233139 
	C416.689392,201.559174 415.618042,200.906433 413.962524,200.773773 
	C416.219177,203.588562 418.494354,206.388702 420.729187,209.220718 
	C429.606689,220.470459 436.396210,232.744568 439.470306,246.900665 
	C444.978302,272.264587 431.615509,298.325409 403.535583,302.865356 
	C397.189178,303.891418 390.533722,303.005829 383.435913,302.671082 
	C379.735077,300.911255 376.441833,299.771912 373.531311,298.002838 
	C354.343201,286.339966 348.026550,267.542603 346.143646,246.744690 
	C345.295319,237.374435 345.999878,227.863602 345.999878,217.854492 
	C343.212097,226.098450 340.523132,234.050156 337.834198,242.001862 
	C332.138275,249.918610 327.159454,258.499542 320.582611,265.600372 
	C310.050171,276.972015 296.446686,282.704895 280.783234,280.858582 
	C266.694153,279.197815 255.361526,272.216553 247.530960,260.060089 
	C235.578934,241.505341 240.516968,217.093094 254.231277,202.032181 
	C264.035522,191.265274 275.748962,183.636978 288.482147,177.165375 
	C290.187073,176.298859 291.896393,175.440964 294.598267,174.076981 
	C288.320679,174.832520 283.190308,175.386536 278.078339,176.076843 
	C260.971008,178.386963 244.193924,177.551605 228.856369,168.868423 
	C214.659866,160.831238 206.662430,148.630219 205.908569,131.834198 
	C205.324051,118.810722 209.349823,107.457970 217.773117,98.003311 
	C224.166824,90.826759 232.711182,86.685860 242.409103,84.943932 
	C261.480988,81.518250 278.160858,88.030434 294.330933,96.882416 
	C297.845917,98.806618 301.167908,101.083389 305.231689,102.539291 
	C301.731628,97.476646 298.221222,92.421074 294.733582,87.349907 
	C287.128113,76.291313 282.205322,64.431709 280.820312,50.778316 
	C278.376251,26.684509 294.349854,5.457099 316.843567,1.354481 
	C322.688049,1.000000 328.376068,1.000000 334.532043,1.000000 
M323.503754,175.889923 
	C334.160492,190.485809 347.850189,198.768768 366.526123,195.863739 
	C396.734894,191.164749 411.590332,160.974319 400.821808,135.480942 
	C391.003540,112.237228 371.850647,105.985451 351.956970,109.422188 
	C323.244965,114.382332 305.664185,148.523575 323.503754,175.889923 
M307.224030,104.877922 
	C307.087860,104.506569 306.951691,104.135216 306.815552,103.763870 
	C306.718231,104.123993 306.620911,104.484123 307.224030,104.877922 
z"/>
<path fill="#000000" opacity="1.000000" stroke="none" 
	d="
M337.911194,242.465836 
	C340.523132,234.050156 343.212097,226.098450 345.999878,217.854492 
	C345.999878,227.863602 345.295319,237.374435 346.143646,246.744690 
	C348.026550,267.542603 354.343201,286.339966 373.531311,298.002838 
	C376.441833,299.771912 379.735077,300.911255 383.008484,302.671967 
	C383.110474,304.664001 383.007111,306.326019 383.006897,307.988007 
	C382.998871,377.303864 382.571899,446.624207 383.305389,515.932312 
	C383.485474,532.946411 381.835480,549.083496 376.074127,564.987000 
	C370.806763,579.526978 363.127472,592.672607 353.636597,604.744263 
	C347.671417,612.331543 341.599182,619.969055 334.656952,626.626770 
	C318.326752,642.287598 300.270538,655.777344 280.504944,666.909363 
	C263.536530,676.466064 245.794968,684.272095 227.281342,690.253662 
	C210.233459,695.761658 192.944427,700.600037 175.009262,701.889221 
	C158.384689,703.084106 141.610931,704.695740 125.046974,703.707947 
	C93.486671,701.825623 63.492260,693.444336 38.247971,673.455994 
	C20.832298,659.666504 9.110016,641.801697 4.858160,619.313843 
	C0.908975,598.426758 4.244171,578.758972 11.923263,559.348145 
	C22.511814,532.582947 40.421528,511.158417 61.437389,492.285980 
	C81.736610,474.057068 104.933266,459.978699 129.776489,448.706299 
	C150.009735,439.525665 171.087219,432.678467 192.807800,428.248596 
	C204.580048,425.847687 216.723785,425.161560 228.733337,424.069153 
	C236.450073,423.367218 244.252335,422.765503 251.973373,423.102234 
	C279.518127,424.303589 306.180664,429.446808 330.876404,442.421753 
	C333.093140,443.586395 335.209534,444.942017 337.988159,446.569519 
	C337.988159,378.135071 337.988159,310.532440 337.911194,242.465836 
M54.968231,579.371704 
	C50.053402,586.381226 44.322296,592.965759 40.402885,600.493530 
	C33.411247,613.922058 36.148346,627.852539 50.099663,636.092468 
	C62.703262,643.536560 76.651039,645.735046 90.618820,645.702393 
	C106.280472,645.665771 121.985626,643.748230 137.582672,641.897400 
	C156.007217,639.711121 173.980209,635.104004 191.493500,629.037476 
	C206.615967,623.799133 221.498856,617.865601 236.462463,612.173157 
	C256.229248,604.653748 274.593048,594.334595 292.301941,582.964478 
	C302.363525,576.504333 311.647675,568.797852 321.061127,561.372681 
	C333.482208,551.575134 343.984283,540.140503 350.257324,525.306213 
	C356.991760,509.380737 351.820770,499.504669 340.896179,492.160950 
	C329.941559,484.797028 317.054962,482.434753 303.993774,482.062561 
	C287.518890,481.593109 271.032684,481.710541 254.772690,485.013000 
	C241.981903,487.610840 229.080063,489.812378 216.468704,493.111725 
	C190.062057,500.020142 164.440735,509.338379 139.830551,521.139160 
	C127.376305,527.111084 115.369637,534.069519 103.418762,541.025391 
	C85.625801,551.381592 69.400505,563.848755 54.968231,579.371704 
z"/>
<path fill="#000000" opacity="1.000000" stroke="none" 
	d="
M1298.000000,266.000000 
	C1298.000000,275.146667 1298.000000,283.793335 1298.000000,291.491547 
	C1303.232666,286.623138 1308.502930,280.913879 1314.584595,276.266113 
	C1322.140259,270.491638 1331.435669,267.683136 1340.653076,267.255219 
	C1356.648804,266.512573 1372.680542,266.172699 1388.379883,271.587433 
	C1408.495728,278.525452 1419.516724,292.979553 1424.937378,312.562653 
	C1428.179565,324.276306 1429.148438,336.285004 1429.082642,348.481659 
	C1428.864136,388.978790 1429.000000,429.477844 1429.000000,469.976166 
	C1429.000000,471.122406 1429.000000,472.268677 1429.000000,474.120361 
	C1417.159668,472.885437 1405.262817,476.529816 1393.939453,471.023468 
	C1387.867798,468.070953 1384.996704,463.305969 1384.997559,456.650146 
	C1385.002686,418.818390 1385.209473,380.984772 1384.870728,343.156036 
	C1384.770996,332.007446 1383.292480,320.751068 1378.671631,310.423401 
	C1373.692871,299.295776 1363.911865,294.116486 1352.387207,293.178284 
	C1339.830444,292.156036 1327.349976,292.533936 1316.403320,300.833862 
	C1307.872070,307.302429 1303.251465,315.991577 1301.189209,325.874756 
	C1299.300415,334.926727 1298.215698,344.303558 1298.136963,353.548798 
	C1297.810791,391.877777 1298.000000,430.211121 1298.000000,468.542877 
	C1298.000000,470.183044 1298.000000,471.823212 1298.000000,474.922913 
	C1286.618652,473.927917 1275.517212,473.445862 1264.588379,471.811371 
	C1258.431396,470.890564 1254.023560,464.069611 1254.021118,457.669434 
	C1253.989380,373.011749 1254.000000,288.354065 1254.000000,203.000504 
	C1265.324707,203.637192 1276.644165,201.300995 1287.720337,205.012436 
	C1293.833252,207.060806 1297.993042,212.933228 1297.996948,219.501862 
	C1298.006226,234.834579 1298.000000,250.167282 1298.000000,266.000000 
z"/>
<path fill="#000000" opacity="1.000000" stroke="none" 
	d="
M1698.700928,404.308655 
	C1694.546143,388.837982 1695.325439,373.342499 1696.258301,358.120239 
	C1697.647461,335.454315 1703.774902,313.861725 1718.687622,295.974762 
	C1729.238159,283.319977 1743.028687,275.260071 1758.980835,270.999481 
	C1769.438232,268.206451 1780.044312,267.147491 1790.896484,266.840637 
	C1808.927612,266.330872 1826.202393,268.544739 1842.442871,276.838165 
	C1864.596802,288.151459 1877.281860,306.786530 1884.011108,330.124542 
	C1888.651245,346.217682 1889.909180,362.724365 1888.873413,379.275940 
	C1887.360596,403.449585 1881.994385,426.701477 1866.300049,446.022308 
	C1854.299561,460.795441 1838.796509,470.844421 1820.017334,474.871216 
	C1811.785278,476.636414 1803.268311,477.165802 1794.853149,477.964783 
	C1778.461060,479.521149 1762.638062,476.824432 1747.796021,469.870544 
	C1733.476196,463.161377 1722.007690,452.750854 1713.271118,439.584076 
	C1706.208496,428.940033 1701.077759,417.386566 1698.700928,404.308655 
M1782.939087,451.975311 
	C1789.931030,451.976501 1797.106201,452.997070 1803.878906,451.779266 
	C1821.124878,448.678162 1832.092773,437.598358 1837.937744,421.475189 
	C1843.645142,405.731384 1844.649780,389.363281 1844.158691,372.694336 
	C1843.800415,360.528381 1843.584595,348.426544 1840.995728,336.490997 
	C1838.514526,325.050903 1835.131592,313.821350 1826.667725,305.345306 
	C1815.189209,293.850037 1800.627319,291.660736 1785.041626,292.939545 
	C1767.103516,294.411377 1755.886841,304.755676 1748.503906,320.068481 
	C1742.806030,331.886353 1740.906982,344.825775 1740.180908,357.685944 
	C1739.208252,374.913116 1739.999268,392.157867 1743.973267,409.119537 
	C1748.937866,430.309418 1759.195312,446.622589 1782.939087,451.975311 
z"/>
<path fill="#000000" opacity="1.000000" stroke="none" 
	d="
M1056.000000,333.170074 
	C1056.000000,380.271423 1056.000000,426.892151 1056.000000,474.456909 
	C1045.340820,473.963165 1035.004028,473.624634 1024.688354,472.961365 
	C1016.704956,472.448029 1012.024963,464.745117 1012.016907,456.597382 
	C1011.979004,418.107239 1012.338440,379.612030 1011.770447,341.130219 
	C1011.621948,331.070679 1009.690735,320.729523 1006.689087,311.107056 
	C1003.723816,301.601166 995.645874,295.654297 985.790344,294.202026 
	C974.322937,292.512238 962.764648,291.824585 951.126648,294.814087 
	C938.847046,297.968445 932.361145,306.394623 929.227051,317.478271 
	C927.086426,325.048248 926.237244,333.189301 926.127441,341.093353 
	C925.526672,384.331024 925.333191,427.574341 925.000732,470.815735 
	C924.994385,471.643829 924.999878,472.471985 924.999878,474.431213 
	C913.917603,473.944641 902.902466,473.936066 892.005554,472.796722 
	C885.895264,472.157837 881.042603,464.790955 881.031311,457.897064 
	C880.966797,418.573853 880.436096,379.238495 881.272705,339.932953 
	C881.615845,323.814545 885.579712,308.073090 895.755737,294.515442 
	C904.342468,283.075165 915.685669,275.801971 929.056763,272.242065 
	C939.474243,269.468475 950.370728,267.856262 961.142151,267.224121 
	C972.497009,266.557709 984.054688,266.848999 995.344604,268.209167 
	C1009.172852,269.875122 1022.145142,274.473328 1033.241699,283.631805 
	C1046.647217,294.696198 1052.534180,309.388611 1055.001709,325.954224 
	C1055.336182,328.199066 1055.667358,330.444366 1056.000000,333.170074 
z"/>
<path fill="#000000" opacity="1.000000" stroke="none" 
	d="
M690.155334,511.000000 
	C697.531189,510.628387 704.591248,511.065796 711.278076,509.689575 
	C720.557007,507.779846 726.471741,500.895538 730.615662,492.741821 
	C734.317383,485.458160 737.572876,477.943573 740.863037,470.459534 
	C741.346619,469.359558 741.388733,467.636536 740.864563,466.586395 
	C731.681458,448.188934 721.346558,430.287994 713.352600,411.394623 
	C702.440063,385.603363 692.628418,359.291290 683.611328,332.771851 
	C677.318542,314.264648 673.129761,295.040649 668.067566,276.119049 
	C667.650391,274.559967 667.742188,272.864716 667.576843,271.000244 
	C678.313171,271.000244 689.394592,270.097382 700.254578,271.260986 
	C710.559265,272.365082 714.626099,274.800476 717.102356,288.612671 
	C719.259399,300.644257 721.717896,312.690765 725.137878,324.411224 
	C730.612671,343.173126 736.561523,361.824463 743.117249,380.235077 
	C749.182007,397.266693 756.302063,413.922607 762.978760,430.735474 
	C763.267334,431.462067 763.770996,432.103271 764.557617,433.430908 
	C786.124268,381.013184 802.949768,328.035553 807.615784,271.119354 
	C816.819580,271.119354 826.651672,270.331268 836.291687,271.353760 
	C844.937561,272.270844 849.347900,280.621582 846.884766,290.105530 
	C839.619568,318.079193 833.022095,346.285004 824.250244,373.789856 
	C817.309875,395.551758 807.988281,416.604553 798.902832,437.617188 
	C790.495605,457.061279 781.485352,476.283875 771.818665,495.131104 
	C764.742249,508.928009 756.076965,522.159668 740.890625,528.342346 
	C733.557983,531.327637 725.426392,533.186401 717.531189,533.728394 
	C708.949341,534.317627 700.101074,533.487854 691.584900,532.022156 
	C676.906067,529.495728 676.051575,523.189819 677.196594,512.347839 
	C681.310547,511.903442 685.491821,511.451721 690.155334,511.000000 
z"/>
<path fill="#000000" opacity="1.000000" stroke="none" 
	d="
M1603.774414,270.015747 
	C1612.751587,274.348969 1622.043091,277.653564 1629.708740,283.203796 
	C1644.592285,293.980042 1653.705566,308.659973 1656.186157,327.444336 
	C1657.528320,337.607422 1656.950684,347.403534 1653.526489,356.738098 
	C1648.479126,370.497589 1636.492065,376.338135 1623.385498,379.927948 
	C1608.638428,383.967072 1593.494995,385.108154 1578.229126,385.023743 
	C1560.002197,384.922943 1541.774414,385.000000 1523.048462,385.000000 
	C1523.012939,396.356262 1524.898315,406.149994 1528.290771,415.555664 
	C1535.371460,435.187622 1548.859497,447.492218 1569.882446,451.061768 
	C1592.093994,454.833130 1613.018188,451.735291 1632.316406,439.845947 
	C1635.764404,437.721710 1638.496338,434.462311 1641.712769,431.922058 
	C1643.048096,430.867523 1644.787598,430.325043 1647.545166,428.950867 
	C1646.948364,436.988617 1647.412842,443.777679 1645.763672,450.007172 
	C1643.018799,460.374695 1635.149170,466.762543 1625.578125,470.973694 
	C1612.677734,476.649719 1599.057617,477.839600 1585.086792,478.177826 
	C1570.056763,478.541687 1555.290283,477.482452 1541.049561,472.872101 
	C1521.433472,466.521545 1505.465820,454.775726 1494.179199,437.393433 
	C1486.389404,425.396271 1481.467651,412.134735 1480.033936,397.789886 
	C1479.170044,389.146729 1477.870483,380.441864 1478.149048,371.809357 
	C1478.985474,345.893036 1483.985107,320.874054 1500.184082,299.796295 
	C1510.259521,286.686157 1523.651978,277.491394 1539.557861,272.041962 
	C1555.768188,266.488190 1572.451538,266.593201 1589.167236,267.131866 
	C1593.921997,267.285095 1598.626465,269.002014 1603.774414,270.015747 
M1523.000000,346.791626 
	C1523.000000,351.409454 1523.000000,356.027313 1523.000000,359.986877 
	C1542.127808,359.986877 1560.838745,360.352325 1579.522827,359.804504 
	C1586.851807,359.589630 1594.167114,357.538055 1601.403198,355.936890 
	C1607.732056,354.536469 1613.376953,348.698975 1612.997314,341.613556 
	C1612.673218,335.566559 1613.106445,329.348206 1611.814697,323.513367 
	C1609.678833,313.865723 1605.009521,305.536621 1596.388306,299.713715 
	C1587.994629,294.044556 1578.766724,292.745850 1569.033203,292.995300 
	C1550.867188,293.460876 1536.542114,304.804810 1530.131714,320.933014 
	C1526.956055,328.922760 1525.329224,337.528046 1523.000000,346.791626 
z"/>
<path fill="#000000" opacity="1.000000" stroke="none" 
	d="
M624.800110,285.304993 
	C628.133362,290.018677 629.308411,294.892059 629.060120,300.304718 
	C628.793701,306.113220 629.000000,311.943420 629.000000,319.015381 
	C627.415649,317.697449 626.516968,317.111694 625.818054,316.344055 
	C616.487488,306.096100 606.392090,296.943298 592.065125,294.559052 
	C574.759705,291.679169 557.602600,291.105316 542.000305,301.041565 
	C526.780762,310.734100 527.219299,335.903809 541.484558,345.350372 
	C551.658264,352.087494 562.883789,355.475403 574.203308,358.976257 
	C593.176270,364.844055 611.561951,371.902191 625.358276,386.984894 
	C634.113525,396.556488 638.301086,407.570801 636.285828,421.209808 
	C634.614075,432.524078 631.586243,442.669830 624.735657,451.967377 
	C618.071899,461.011414 609.068420,466.559357 599.241394,470.861023 
	C579.551941,479.479889 558.506042,478.891846 537.776489,477.706268 
	C525.367188,476.996552 513.064148,474.006714 502.416901,466.212402 
	C494.531250,460.439758 489.809937,453.251984 489.081573,443.661011 
	C488.642700,437.882050 489.000854,432.042603 489.000854,425.593475 
	C490.461578,426.179535 491.843445,426.284729 492.358948,427.007690 
	C501.211334,439.423340 513.734070,446.120209 528.126465,449.512238 
	C542.253479,452.841736 556.533325,453.939270 570.590271,448.973236 
	C594.517090,440.520416 598.974854,410.608643 582.775513,397.762115 
	C575.061157,391.644440 565.324524,387.569000 555.918884,384.203796 
	C539.331055,378.268921 521.886841,374.632385 507.216675,364.043549 
	C497.533569,357.054352 489.260040,349.258301 486.882965,336.722534 
	C484.501862,324.165619 486.852905,312.475037 492.982819,301.648132 
	C504.362885,281.548279 523.369324,272.602173 544.965210,269.261078 
	C558.405273,267.181793 572.294739,266.616882 585.885742,267.299347 
	C599.105713,267.963165 612.225647,271.043396 621.969604,281.518188 
	C622.950562,282.572723 623.691589,283.850342 624.800110,285.304993 
z"/>
<path fill="#000000" opacity="1.000000" stroke="none" 
	d="
M1153.000000,337.000000 
	C1153.000000,364.657532 1152.794922,391.817932 1153.171997,418.970245 
	C1153.247925,424.441467 1155.233276,429.972717 1156.860229,435.317413 
	C1160.048096,445.790222 1169.085693,448.932434 1178.319092,449.779449 
	C1192.561401,451.085968 1206.639526,449.790955 1218.882812,440.831573 
	C1220.267090,439.818634 1222.582031,440.077759 1225.428467,439.577881 
	C1224.925049,445.500977 1224.571533,450.856842 1223.994141,456.188446 
	C1222.978271,465.566559 1216.576904,470.417480 1208.447754,472.844360 
	C1202.472656,474.628235 1196.099854,475.638306 1189.862061,475.872955 
	C1174.772217,476.440582 1159.629272,476.589783 1144.959351,471.991913 
	C1124.669434,465.632599 1112.057983,453.301208 1109.075684,431.257385 
	C1108.240112,425.081818 1108.053589,418.781097 1108.044067,412.537048 
	C1107.965942,361.387695 1108.102051,310.237823 1107.929565,259.088928 
	C1107.885376,246.003540 1125.300049,224.609833 1141.178101,225.957397 
	C1144.615967,226.249161 1148.099731,226.000000 1152.000000,226.000000 
	C1152.000000,233.615494 1152.000000,240.895554 1152.000000,248.175629 
	C1152.000000,255.302231 1152.000000,262.428833 1152.000000,269.942566 
	C1176.408569,269.942566 1200.478149,269.942566 1225.399170,269.942566 
	C1224.900269,275.213379 1224.955688,280.154602 1223.858154,284.824951 
	C1222.480835,290.686584 1217.056763,292.849335 1212.118530,294.813751 
	C1209.497437,295.856415 1206.379272,295.935028 1203.482544,295.952118 
	C1186.844727,296.050446 1170.206177,296.000000 1153.000000,296.000000 
	C1153.000000,309.644501 1153.000000,323.072235 1153.000000,337.000000 
z"/>
<path fill="#000101" opacity="1.000000" stroke="none" 
	d="
M323.298645,175.583878 
	C305.664185,148.523575 323.244965,114.382332 351.956970,109.422188 
	C371.850647,105.985451 391.003540,112.237228 400.821808,135.480942 
	C411.590332,160.974319 396.734894,191.164749 366.526123,195.863739 
	C347.850189,198.768768 334.160492,190.485809 323.298645,175.583878 
z"/>
<path fill="#FFFFFF" opacity="1.000000" stroke="none" 
	d="
M306.873810,104.861084 
	C306.620911,104.484123 306.718231,104.123993 306.815552,103.763870 
	C306.951691,104.135216 307.087860,104.506569 306.873810,104.861084 
z"/>
<path fill="#FFFFFF" opacity="1.000000" stroke="none" 
	d="
M54.998886,579.012329 
	C69.400505,563.848755 85.625801,551.381592 103.418762,541.025391 
	C115.369637,534.069519 127.376305,527.111084 139.830551,521.139160 
	C164.440735,509.338379 190.062057,500.020142 216.468704,493.111725 
	C229.080063,489.812378 241.981903,487.610840 254.772690,485.013000 
	C271.032684,481.710541 287.518890,481.593109 303.993774,482.062561 
	C317.054962,482.434753 329.941559,484.797028 340.896179,492.160950 
	C351.820770,499.504669 356.991760,509.380737 350.257324,525.306213 
	C343.984283,540.140503 333.482208,551.575134 321.061127,561.372681 
	C311.647675,568.797852 302.363525,576.504333 292.301941,582.964478 
	C274.593048,594.334595 256.229248,604.653748 236.462463,612.173157 
	C221.498856,617.865601 206.615967,623.799133 191.493500,629.037476 
	C173.980209,635.104004 156.007217,639.711121 137.582672,641.897400 
	C121.985626,643.748230 106.280472,645.665771 90.618820,645.702393 
	C76.651039,645.735046 62.703262,643.536560 50.099663,636.092468 
	C36.148346,627.852539 33.411247,613.922058 40.402885,600.493530 
	C44.322296,592.965759 50.053402,586.381226 54.998886,579.012329 
z"/>
<path fill="#FFFFFF" opacity="1.000000" stroke="none" 
	d="
M1782.528076,451.809174 
	C1759.195312,446.622589 1748.937866,430.309418 1743.973267,409.119537 
	C1739.999268,392.157867 1739.208252,374.913116 1740.180908,357.685944 
	C1740.906982,344.825775 1742.806030,331.886353 1748.503906,320.068481 
	C1755.886841,304.755676 1767.103516,294.411377 1785.041626,292.939545 
	C1800.627319,291.660736 1815.189209,293.850037 1826.667725,305.345306 
	C1835.131592,313.821350 1838.514526,325.050903 1840.995728,336.490997 
	C1843.584595,348.426544 1843.800415,360.528381 1844.158691,372.694336 
	C1844.649780,389.363281 1843.645142,405.731384 1837.937744,421.475189 
	C1832.092773,437.598358 1821.124878,448.678162 1803.878906,451.779266 
	C1797.106201,452.997070 1789.931030,451.976501 1782.528076,451.809174 
z"/>
<path fill="#FFFFFF" opacity="1.000000" stroke="none" 
	d="
M1523.000977,346.323242 
	C1525.329224,337.528046 1526.956055,328.922760 1530.131714,320.933014 
	C1536.542114,304.804810 1550.867188,293.460876 1569.033203,292.995300 
	C1578.766724,292.745850 1587.994629,294.044556 1596.388306,299.713715 
	C1605.009521,305.536621 1609.678833,313.865723 1611.814697,323.513367 
	C1613.106445,329.348206 1612.673218,335.566559 1612.997314,341.613556 
	C1613.376953,348.698975 1607.732056,354.536469 1601.403198,355.936890 
	C1594.167114,357.538055 1586.851807,359.589630 1579.522827,359.804504 
	C1560.838745,360.352325 1542.127808,359.986877 1523.000000,359.986877 
	C1523.000000,356.027313 1523.000000,351.409454 1523.000977,346.323242 
z"/>
</svg>